HIERARCHY
ROOT Hips
{
	OFFSET 14.658700 -1.743397 44.686901
	CHANNELS 6 Xposition Yposition Zposition Zrotation Xrotation Yrotation
	JOINT Chest
	{
		OFFSET -0.825500 0.895800 5.069500
		CHANNELS 6 Xposition Yposition Zposition Zrotation Xrotation Yrotation
		JOINT Chest2
		{
			OFFSET 0.000000 0.000000 4.622200
			CHANNELS 6 Xposition Yposition Zposition Zrotation Xrotation Yrotation
			JOINT Neck
			{
				OFFSET 0.000000 0.000001 10.755798
				CHANNELS 6 Xposition Yposition Zposition Zrotation Xrotation Yrotation
				JOINT Head
				{
					OFFSET 0.000000 0.000000 2.173897
					CHANNELS 6 Xposition Yposition Zposition Zrotation Xrotation Yrotation
					End Site
					{
						OFFSET 0.000000 0.000001 10.006599
					}
				}
			}
			JOINT LeftCollar
			{
				OFFSET 2.539400 -1.380899 6.761002
				CHANNELS 6 Xposition Yposition Zposition Zrotation Xrotation Yrotation
				JOINT LeftShoulder
				{
					OFFSET 5.407000 0.000000 0.000000
					CHANNELS 6 Xposition Yposition Zposition Zrotation Xrotation Yrotation
					JOINT LeftElbow
					{
						OFFSET 0.000000 -0.000001 -10.687000
						CHANNELS 6 Xposition Yposition Zposition Zrotation Xrotation Yrotation
						JOINT LeftWrist
						{
							OFFSET 0.000000 -0.000001 -13.346901
							CHANNELS 6 Xposition Yposition Zposition Zrotation Xrotation Yrotation
							End Site
							{
								OFFSET 0.000000 -0.000000 -2.173901
							}
						}
					}
				}
			}
			JOINT RightCollar
			{
				OFFSET -2.411400 -2.842699 7.518600
				CHANNELS 6 Xposition Yposition Zposition Zrotation Xrotation Yrotation
				JOINT RightShoulder
				{
					OFFSET -4.245500 0.000000 0.000000
					CHANNELS 6 Xposition Yposition Zposition Zrotation Xrotation Yrotation
					JOINT RightElbow
					{
						OFFSET 0.000000 -0.000001 -10.446701
						CHANNELS 6 Xposition Yposition Zposition Zrotation Xrotation Yrotation
						JOINT RightWrist
						{
							OFFSET 0.000000 -0.000001 -12.218899
							CHANNELS 6 Xposition Yposition Zposition Zrotation Xrotation Yrotation
							End Site
							{
								OFFSET 0.000000 0.000000 -2.173901
							}
						}
					}
				}
			}
		}
	}
	JOINT LeftHip
	{
		OFFSET 2.346700 0.301800 -2.502800
		CHANNELS 6 Xposition Yposition Zposition Zrotation Xrotation Yrotation
		JOINT LeftKnee
		{
			OFFSET 0.000000 -0.000002 -20.597000
			CHANNELS 6 Xposition Yposition Zposition Zrotation Xrotation Yrotation
			JOINT LeftAnkle
			{
				OFFSET 0.000000 -0.000001 -17.157499
				CHANNELS 6 Xposition Yposition Zposition Zrotation Xrotation Yrotation
				End Site
				{
					OFFSET 0.000000 -9.063900 0.000001
				}
			}
		}
	}
	JOINT RightHip
	{
		OFFSET -1.908600 -0.007900 -2.706001
		CHANNELS 6 Xposition Yposition Zposition Zrotation Xrotation Yrotation
		JOINT RightKnee
		{
			OFFSET 0.000000 -0.000002 -20.198500
			CHANNELS 6 Xposition Yposition Zposition Zrotation Xrotation Yrotation
			JOINT RightAnkle
			{
				OFFSET 0.000000 -0.000001 -17.295700
				CHANNELS 6 Xposition Yposition Zposition Zrotation Xrotation Yrotation
				End Site
				{
					OFFSET 0.000000 -8.113500 0.000001
				}
			}
		}
	}
}
MOTION
Frames: 8
Frame Time: 0.041667
19.413801 -35.888802 31.240299 -1772.147003 11.310382 -9.738074 -0.825502 0.895804 5.069500 11.783672 -9.662911 5.863490 -0.000001 -0.000003 4.622199 -1.950786 -1.525915 0.147579 0.000006 0.000003 10.755810 -29.450393 -18.382653 12.179341 0.000001 0.000004 2.173913 -0.782791 -1.263714 -3.782927 2.539403 -1.380896 6.761001 13.768277 -9.504544 -20.733396 5.406997 0.000005 0.000001 71.192264 -135.637407 2.723865 0.000002 0.000001 -10.686992 55.464722 -9.669595 24.924747 0.000003 0.000001 -13.346906 234.595715 -11.029299 -69.489074 -2.411396 -2.842695 7.518600 45.185164 22.159091 -19.338692 -4.245496 0.000009 0.000001 -788.156019 -84.198262 -763.070209 -0.000003 0.000005 -10.446700 -64.941671 -28.631019 -89.148872 0.000000 -0.000004 -12.218889 -23.909953 -11.969410 -10.228694 2.346698 0.301810 -2.502799 73.725581 -50.224089 74.784636 -0.000002 -0.000001 -20.596996 242.498818 46.462464 105.738432 0.000001 -0.000003 -17.157507 -308.028663 -6.801064 33.406643 -1.908603 -0.007894 -2.706003 -52.467037 -31.493538 -37.433921 0.000004 -0.000011 -20.198505 152.392831 41.587253 -125.829829 -0.000000 0.000000 -17.295702 -54.394445 5.627633 -6.275736
19.535404 -36.216099 30.391994 -1770.643269 11.493813 -10.111616 -0.825502 0.895807 5.069504 11.947141 -9.888315 5.680318 -0.000002 0.000005 4.622200 -2.243546 -1.521201 0.123387 0.000003 0.000004 10.755813 -28.634974 -18.602141 12.338121 0.000000 -0.000001 2.173901 -2.044024 -1.164864 -2.607287 2.539395 -1.380900 6.761002 13.964268 -10.036127 -20.246772 5.407004 0.000004 0.000004 72.689633 -135.390755 3.807423 0.000006 0.000004 -10.686992 56.034882 -9.726766 24.691745 0.000003 0.000003 -13.346899 235.192783 -11.493908 -70.599697 -2.411402 -2.842697 7.518600 44.949079 21.697389 -19.227230 -4.245497 0.000001 -0.000002 -761.806078 -83.313944 -737.243078 -0.000004 0.000003 -10.446698 -67.186658 -28.502246 -90.499160 0.000000 0.000000 -12.218904 -24.139849 -11.928003 -9.536108 2.346701 0.301810 -2.502798 75.603050 -50.595494 78.022931 -0.000001 0.000001 -20.597000 240.243325 44.608307 109.369094 -0.000002 0.000000 -17.157503 -306.860373 -7.556788 33.661197 -1.908601 -0.007895 -2.705998 -56.843153 -30.431904 -40.141233 0.000003 -0.000008 -20.198505 156.320641 39.112614 -128.465285 0.000002 0.000000 -17.295702 -55.473372 6.076371 -6.647001
19.669504 -36.529697 29.631495 -1769.317010 11.662950 -10.358393 -0.825493 0.895799 5.069501 11.884470 -10.249205 5.416206 0.000003 0.000001 4.622201 -2.234016 -1.489641 0.120671 0.000003 0.000002 10.755806 -29.022000 -18.530556 12.937164 -0.000004 0.000002 2.173893 -1.931572 -0.964133 -3.251881 2.539406 -1.380895 6.761000 14.094686 -10.219300 -19.776090 5.407001 -0.000001 0.000001 72.970504 -135.372901 3.858771 0.000007 0.000002 -10.686995 56.146846 -9.894126 24.558980 0.000007 0.000005 -13.346898 235.395230 -11.746808 -71.339065 -2.411400 -2.842701 7.518598 44.604393 21.368208 -19.405933 -4.245496 0.000001 -0.000000 -759.389721 -82.304784 -734.867812 -0.000005 -0.000008 -10.446698 -66.636166 -28.011342 -91.312348 0.000007 -0.000000 -12.218881 -24.399405 -12.222020 -8.962764 2.346702 0.301803 -2.502797 76.947730 -51.329439 80.678393 -0.000001 0.000001 -20.596992 238.998264 43.051611 112.280886 0.000002 0.000001 -17.157507 -305.784400 -8.069297 33.721791 -1.908597 -0.007898 -2.705999 -58.281881 -31.153729 -41.477960 0.000003 -0.000005 -20.198511 158.951274 38.715035 -132.603861 0.000000 0.000001 -17.295694 -55.755944 6.577943 -5.890797
19.830004 -36.819500 28.938303 -1768.528096 11.593215 -10.497628 -0.825500 0.895803 5.069502 11.894625 -10.356306 5.055279 -0.000004 0.000006 4.622201 -2.134896 -1.504899 0.097961 0.000004 0.000002 10.755798 -29.463462 -18.347795 13.547153 0.000002 0.000006 2.173911 -1.918400 -0.736121 -3.492618 2.539396 -1.380897 6.760998 14.043621 -10.170160 -19.183039 5.407003 -0.000003 0.000006 75.337164 -135.624307 5.044804 0.000009 0.000006 -10.686988 57.988730 -10.016987 24.825060 0.000006 0.000006 -13.346897 234.914740 -11.858053 -72.703819 -2.411405 -2.842700 7.518589 44.330957 21.248734 -19.560426 -4.245497 0.000005 -0.000002 -756.299689 -81.986162 -731.683304 -0.000006 0.000003 -10.446699 -65.929152 -27.271902 -91.686055 -0.000002 0.000003 -12.218893 -24.443809 -12.529189 -8.409262 2.346698 0.301807 -2.502800 78.084430 -52.010320 82.725503 -0.000005 -0.000003 -20.596992 238.243719 41.394194 114.710746 0.000000 -0.000005 -17.157505 -304.556059 -8.769673 34.360312 -1.908603 -0.007897 -2.705997 -59.219092 -31.760906 -42.072405 0.000004 -0.000007 -20.198513 158.908313 36.900046 -134.359848 -0.000003 0.000000 -17.295702 -56.276101 6.766606 -6.671344
19.970802 -37.093494 28.322201 -1767.737652 11.517030 -10.536707 -0.825506 0.895805 5.069497 11.907283 -10.513617 4.657397 -0.000005 0.000000 4.622203 -2.155196 -1.506699 0.093860 0.000002 0.000001 10.755808 -30.106227 -18.052229 14.095003 0.000001 0.000006 2.173898 -1.927982 -0.546872 -3.614303 2.539402 -1.380898 6.761005 13.797501 -10.079859 -18.910434 5.407000 0.000005 -0.000001 75.670088 -135.821372 4.605872 0.000002 0.000001 -10.686992 58.496848 -9.953006 24.981050 0.000000 0.000004 -13.346895 234.810019 -11.713739 -72.083303 -2.411403 -2.842701 7.518605 43.680682 20.822551 -19.383126 -4.245499 0.000008 0.000006 -743.115620 -81.600140 -718.664855 -0.000005 0.000004 -10.446703 -66.883111 -27.853703 -92.031478 0.000006 0.000005 -12.218889 -25.373967 -13.017659 -8.310563 2.346694 0.301806 -2.502802 78.948367 -52.598481 84.611864 -0.000002 -0.000007 -20.596994 237.514692 39.948547 116.782902 0.000004 -0.000006 -17.157501 -303.370584 -9.396626 35.053911 -1.908604 -0.007893 -2.706001 -60.207373 -32.312054 -42.735766 0.000003 -0.000010 -20.198507 158.907807 35.414726 -136.029487 0.000000 -0.000002 -17.295710 -56.679437 6.902839 -7.100435
20.110004 -37.346199 27.774593 -1767.218666 11.504016 -10.532022 -0.825497 0.895805 5.069498 11.574697 -10.668515 4.504173 -0.000003 0.000002 4.622195 -1.933745 -1.544977 0.050264 0.000005 -0.000001 10.755816 -30.896689 -17.631409 14.086266 0.000002 -0.000000 2.173915 -1.795217 -0.511674 -3.586180 2.539399 -1.380904 6.761007 13.924413 -10.578138 -18.734456 5.407001 0.000003 -0.000002 76.333586 -136.211990 5.047049 -0.000004 0.000004 -10.687001 58.892507 -10.134051 24.917310 0.000000 0.000000 -13.346880 235.380094 -11.575687 -71.359522 -2.411400 -2.842709 7.518607 42.966951 20.461297 -19.458237 -4.245500 0.000001 -0.000004 -737.810203 -81.425998 -713.866401 -0.000005 -0.000002 -10.446700 -66.748044 -28.337410 -92.455203 0.000004 0.000003 -12.218890 -25.162021 -12.947121 -8.239356 2.346700 0.301805 -2.502799 79.867827 -53.124081 86.493124 -0.000003 0.000002 -20.597000 236.920903 38.473359 118.639744 -0.000004 -0.000002 -17.157503 -301.840840 -10.018352 35.631297 -1.908599 -0.007899 -2.705999 -60.916688 -32.833242 -43.404401 0.000004 -0.000006 -20.198509 158.453326 33.470304 -137.239537 -0.000001 0.000001 -17.295704 -57.252343 6.781053 -8.485637
20.234001 -37.588001 27.300200 -1766.837924 11.571602 -10.495094 -0.825500 0.895802 5.069501 11.300212 -10.937271 4.373599 0.000002 0.000002 4.622207 -1.772926 -1.575424 0.018348 0.000010 0.000006 10.755807 -31.589259 -17.251294 14.127552 -0.000001 0.000002 2.173903 -1.589770 -0.472886 -3.501195 2.539402 -1.380900 6.760995 13.973765 -10.697370 -18.903701 5.407003 0.000011 -0.000004 76.184278 -136.485184 4.553977 -0.000001 0.000006 -10.686994 59.293125 -10.061065 24.740765 0.000001 0.000004 -13.346904 235.700430 -11.594620 -70.634647 -2.411399 -2.842699 7.518600 42.661440 20.295163 -19.889063 -4.245500 0.000003 0.000006 -738.038604 -81.896557 -714.154362 -0.000005 0.000002 -10.446703 -66.055381 -28.205616 -92.913782 0.000000 0.000006 -12.218891 -24.407169 -12.938210 -8.322438 2.346701 0.301809 -2.502798 80.759050 -53.550428 88.293528 0.000003 0.000002 -20.596994 236.388503 37.024283 120.284112 -0.000001 -0.000003 -17.157501 -300.226183 -10.643531 36.291602 -1.908598 -0.007895 -2.705998 -64.204782 -31.525742 -45.492048 -0.000002 -0.000010 -20.198507 160.690678 31.536329 -138.163348 -0.000001 0.000001 -17.295706 -58.019889 6.794380 -9.232010
20.343302 -37.815598 26.885296 -1766.648428 11.557474 -10.311445 -0.825497 0.895802 5.069497 11.109460 -11.105216 4.025083 -0.000004 0.000003 4.622199 -1.646388 -1.633417 -0.012443 0.000006 0.000006 10.755808 -33.422605 -17.229781 15.079215 0.000001 -0.000002 2.173912 -0.199638 -0.530573 -4.720963 2.539402 -1.380894 6.761003 14.111210 -10.674522 -19.505617 5.406995 0.000000 -0.000004 76.070733 -136.196267 3.956182 0.000007 0.000006 -10.686989 60.188542 -9.940200 24.749481 0.000005 0.000006 -13.346902 235.688245 -11.701174 -71.360013 -2.411400 -2.842696 7.518602 42.421137 20.201691 -20.170763 -4.245496 0.000004 0.000001 -731.049900 -82.135040 -707.440614 -0.000005 -0.000000 -10.446701 -66.643242 -27.110529 -93.445580 0.000007 -0.000001 -12.218892 -22.410593 -12.833808 -8.297325 2.346701 0.301803 -2.502802 81.559234 -53.783027 89.782891 -0.000000 0.000005 -20.596998 235.521260 35.787982 121.904356 0.000004 -0.000002 -17.157494 -298.895526 -11.483360 37.150703 -1.908597 -0.007897 -2.706006 -65.120075 -31.469099 -45.907593 -0.000002 -0.000011 -20.198505 157.694602 27.948501 -136.782229 -0.000001 0.000001 -17.295702 -58.757481 6.216814 -12.701182
